<svg width="219" height="282" viewBox="0 0 219 282" fill="none" xmlns="http://www.w3.org/2000/svg">
    <g clip-path="url(#clip0_23_20)">
        <path d="M154.883 77.862C154.883 79.4692 154.831 81.063 154.726 82.6433C154.137 91.7578 151.814 100.68 147.88 108.938C147.85 109.009 147.814 109.074 147.784 109.14C147.601 109.523 147.412 109.906 147.219 110.284C146.049 112.619 144.751 114.89 143.331 117.085C136.845 127.163 127.955 135.502 117.445 141.365C106.936 147.228 95.1325 150.434 83.0767 150.701L83.8035 192.136L93.2818 187.189L94.9742 190.378L83.8747 196.172L85.2316 273.127L85.2468 274.155L77.9183 274.765L77.9334 274.74L80.2407 150.706C70.5369 150.568 60.9575 148.52 52.0586 144.682C43.1597 140.843 35.1185 135.291 28.4021 128.346C27.9398 127.872 27.4822 127.384 27.035 126.9C27.0147 126.88 26.9995 126.86 26.9841 126.845C21.3881 120.795 16.8624 113.852 13.5976 106.308C13.6689 106.389 13.745 106.465 13.8163 106.545C6.43779 89.44 5.93736 70.185 12.4175 52.7258C18.8977 35.2667 31.8677 20.9254 48.6699 12.6408C48.924 12.5148 49.1834 12.3939 49.4375 12.268C66.0579 4.3315 85.0795 2.87527 102.732 8.1879C120.384 13.5005 135.379 25.1942 144.744 40.9512C145.192 41.6969 145.624 42.4577 146.04 43.2235C151.858 53.8571 154.898 65.7651 154.883 77.862Z"
              fill="#E5E5E5"/>
        <path d="M100.773 274.934C112.861 274.934 122.66 265.219 122.66 253.236C122.66 241.252 112.861 231.537 100.773 231.537C88.6844 231.537 78.8849 241.252 78.8849 253.236C78.8849 265.219 88.6844 274.934 100.773 274.934Z"
              fill="#25363E"/>
        <path d="M126.642 268.151H107.033V274.743H126.642V268.151Z" fill="#25363E"/>
        <path d="M127.078 274.987C128.226 274.987 129.156 272.527 129.156 269.493C129.156 266.459 128.226 264 127.078 264C125.93 264 125 266.459 125 269.493C125 272.527 125.93 274.987 127.078 274.987Z"
              fill="#25363E"/>
        <path d="M122.068 267.647H102.459V274.239H122.068V267.647Z" fill="#25363E"/>
        <path d="M122.206 274.239C123.354 274.239 124.284 271.78 124.284 268.746C124.284 265.712 123.354 263.253 122.206 263.253C121.059 263.253 120.129 265.712 120.129 268.746C120.129 271.78 121.059 274.239 122.206 274.239Z"
              fill="#25363E"/>
        <path d="M109.185 252C108.04 252.023 106.917 251.689 105.974 251.045C105.031 250.401 104.316 249.48 103.93 248.411C103.909 248.348 103.9 248.282 103.905 248.216C103.909 248.15 103.927 248.086 103.957 248.026C103.987 247.967 104.028 247.914 104.078 247.871C104.128 247.827 104.187 247.794 104.25 247.773C104.313 247.752 104.38 247.744 104.447 247.748C104.513 247.753 104.578 247.77 104.638 247.8C104.698 247.829 104.751 247.87 104.795 247.92C104.839 247.97 104.872 248.028 104.894 248.09C105.663 250.362 108.298 251.549 110.766 250.737C111.991 250.342 113.009 249.482 113.598 248.345C113.851 247.856 114.003 247.321 114.045 246.773C114.087 246.225 114.019 245.674 113.845 245.152C113.824 245.089 113.815 245.023 113.82 244.957C113.824 244.891 113.842 244.827 113.872 244.767C113.901 244.708 113.942 244.655 113.993 244.612C114.043 244.568 114.102 244.535 114.165 244.514C114.228 244.493 114.295 244.484 114.361 244.489C114.428 244.493 114.493 244.511 114.553 244.54C114.613 244.57 114.666 244.611 114.71 244.661C114.754 244.71 114.787 244.768 114.808 244.831C115.026 245.479 115.111 246.163 115.059 246.843C115.008 247.524 114.82 248.187 114.507 248.795C113.797 250.171 112.567 251.213 111.086 251.694C110.473 251.896 109.831 251.999 109.185 252Z"
              fill="white"/>
        <path d="M118.935 254.949C119.522 256.088 119.63 257.412 119.233 258.629C118.836 259.846 117.967 260.857 116.819 261.439C115.67 262.022 114.335 262.128 113.107 261.734C111.88 261.341 110.86 260.48 110.272 259.341L110.268 259.333C109.047 256.96 110.734 255.487 113.127 254.277C115.521 253.066 117.714 252.577 118.935 254.949Z"
              fill="white"/>
        <path d="M197.054 275.13H3.42167C3.28689 275.13 3.15761 275.077 3.0623 274.982C2.96699 274.888 2.91345 274.76 2.91345 274.626C2.91345 274.492 2.96699 274.364 3.0623 274.27C3.15761 274.175 3.28689 274.122 3.42167 274.122H197.054C197.189 274.122 197.318 274.175 197.414 274.27C197.509 274.364 197.562 274.492 197.562 274.626C197.562 274.76 197.509 274.888 197.414 274.982C197.318 275.077 197.189 275.13 197.054 275.13Z"
              fill="#25363E"/>
        <path d="M95.876 281.961C97.9145 281.44 98.2095 275.799 96.5348 269.361C94.8601 262.923 91.8499 258.127 89.8113 258.648C87.7727 259.17 87.4777 264.811 89.1525 271.249C90.8272 277.686 93.8374 282.482 95.876 281.961Z"
              fill="#25363E"/>
        <path d="M196.234 89.3682L202.737 84.2123C197.685 83.6598 195.61 86.391 194.76 88.5528C190.814 86.9282 186.518 89.0573 186.518 89.0573L199.528 93.7398C198.872 92.0018 197.729 90.4854 196.234 89.3682Z"
              fill="#25363E"/>
        <path d="M9.71681 5.22816L16.2194 0.0722064C11.1678 -0.480307 9.09222 2.25092 8.24276 4.41272C4.29625 2.78813 0 4.91725 0 4.91725L13.0105 9.59974C12.3542 7.86175 11.2116 6.34529 9.71681 5.22816Z"
              fill="#25363E"/>
        <path d="M212.497 22.8623L219 17.7064C213.948 17.1538 211.873 19.8851 211.023 22.0469C207.077 20.4223 202.781 22.5514 202.781 22.5514L215.791 27.2339C215.135 25.4959 213.992 23.9794 212.497 22.8623Z"
              fill="#25363E"/>
    </g>
    <defs>
        <clipPath id="clip0_23_20">
            <rect width="219" height="282" fill="white"/>
        </clipPath>
    </defs>
</svg>
